<svg width="32" height="31" viewBox="0 0 32 31" fill="none" xmlns="http://www.w3.org/2000/svg">
<path fill-rule="evenodd" clip-rule="evenodd" d="M16.0461 2.79224C16.3807 2.79224 16.7016 2.92515 16.9381 3.16173C17.1747 3.39832 17.3076 3.71919 17.3076 4.05377V5.26737L18.1327 4.83088C18.4285 4.67447 18.7742 4.64195 19.094 4.74049C19.4137 4.83902 19.6812 5.06054 19.8377 5.35631C19.9941 5.65208 20.0266 5.99787 19.9281 6.31762C19.8295 6.63736 19.608 6.90486 19.3122 7.06128L17.3076 8.12097V10.5204C18.2096 10.7525 19.0132 11.2269 19.6465 11.8715L21.7255 10.6718L21.641 8.40608C21.6285 8.07167 21.7493 7.74597 21.9769 7.50063C22.2045 7.25529 22.5202 7.11041 22.8546 7.09787C23.189 7.08532 23.5147 7.20613 23.7601 7.43373C24.0054 7.66132 24.1503 7.97705 24.1628 8.31147L24.1969 9.245L25.2478 8.6382C25.3913 8.55406 25.55 8.49914 25.7149 8.4766C25.8797 8.45406 26.0474 8.46435 26.2082 8.50688C26.3691 8.5494 26.5199 8.62332 26.6521 8.72438C26.7842 8.82544 26.8951 8.95165 26.9783 9.09573C27.0615 9.23981 27.1154 9.39892 27.1368 9.56391C27.1582 9.72889 27.1468 9.89649 27.1032 10.057C27.0597 10.2176 26.9847 10.368 26.8828 10.4994C26.7809 10.6309 26.6539 10.741 26.5093 10.8232L25.4584 11.4287L26.2494 11.9258C26.3897 12.0139 26.5113 12.1288 26.6072 12.2639C26.7032 12.3991 26.7715 12.5518 26.8084 12.7133C26.8453 12.8748 26.85 13.0421 26.8223 13.2054C26.7946 13.3688 26.7349 13.5251 26.6468 13.6654C26.5587 13.8058 26.4438 13.9273 26.3086 14.0233C26.1735 14.1192 26.0208 14.1875 25.8593 14.2244C25.6977 14.2613 25.5305 14.266 25.3671 14.2383C25.2038 14.2106 25.0475 14.151 24.9071 14.0628L22.9871 12.8568L20.9093 14.0552C21.1552 14.9396 21.1552 15.8743 20.9093 16.7587L22.9871 17.9584L24.9071 16.7524C25.1905 16.5744 25.533 16.5163 25.8593 16.5908C26.1855 16.6653 26.4688 16.8664 26.6468 17.1498C26.8248 17.4332 26.8829 17.7757 26.8084 18.1019C26.7339 18.4282 26.5328 18.7115 26.2494 18.8895L25.4597 19.3852L26.5093 19.992C26.6539 20.0743 26.7809 20.1843 26.8828 20.3158C26.9847 20.4473 27.0597 20.5976 27.1032 20.7582C27.1468 20.9187 27.1582 21.0863 27.1368 21.2513C27.1154 21.4163 27.0615 21.5754 26.9783 21.7195C26.8951 21.8636 26.7842 21.9898 26.6521 22.0909C26.5199 22.1919 26.3691 22.2658 26.2082 22.3084C26.0474 22.3509 25.8797 22.3612 25.7149 22.3386C25.55 22.3161 25.3913 22.2612 25.2478 22.177L24.1982 21.5715L24.1628 22.5038C24.1503 22.8382 24.0054 23.1539 23.7601 23.3815C23.5147 23.6091 23.189 23.7299 22.8546 23.7174C22.5202 23.7048 22.2045 23.5599 21.9769 23.3146C21.7493 23.0693 21.6285 22.7436 21.641 22.4092L21.7255 20.1434L19.6465 18.9437C19.0132 19.5871 18.2084 20.0627 17.3076 20.2948V22.6943L19.3122 23.754C19.608 23.9104 19.8295 24.1779 19.9281 24.4976C20.0266 24.8174 19.9941 25.1632 19.8377 25.4589C19.6812 25.7547 19.4137 25.9762 19.094 26.0747C18.7742 26.1733 18.4285 26.1408 18.1327 25.9844L17.3076 25.5479V26.7615C17.3076 27.096 17.1747 27.4169 16.9381 27.6535C16.7016 27.8901 16.3807 28.023 16.0461 28.023C15.7115 28.023 15.3906 27.8901 15.1541 27.6535C14.9175 27.4169 14.7846 27.096 14.7846 26.7615V25.5479L13.9595 25.9844C13.8131 26.0618 13.6528 26.1096 13.4879 26.1252C13.3229 26.1407 13.1565 26.1235 12.9982 26.0747C12.8399 26.026 12.6927 25.9465 12.5651 25.8408C12.4375 25.7351 12.332 25.6054 12.2546 25.4589C12.1771 25.3125 12.1293 25.1522 12.1137 24.9873C12.0982 24.8223 12.1154 24.6559 12.1642 24.4976C12.2129 24.3393 12.2924 24.1921 12.3981 24.0645C12.5038 23.9369 12.6335 23.8314 12.78 23.754L14.7846 22.6943V20.2948C13.8965 20.065 13.0879 19.5974 12.4457 18.9424L10.3667 20.1434L10.4512 22.4092C10.4573 22.5747 10.4308 22.7399 10.3731 22.8952C10.3154 23.0506 10.2276 23.193 10.1149 23.3144C10.0021 23.4358 9.86656 23.5339 9.71593 23.6029C9.56529 23.6719 9.40254 23.7106 9.23695 23.7167C9.07137 23.7229 8.9062 23.6963 8.75087 23.6386C8.59554 23.5809 8.4531 23.4932 8.33168 23.3804C8.21026 23.2677 8.11224 23.1321 8.04321 22.9815C7.97418 22.8308 7.9355 22.6681 7.92937 22.5025L7.89531 21.5702L6.84444 22.1758C6.70083 22.2646 6.54085 22.3237 6.37397 22.3496C6.2071 22.3755 6.03672 22.3676 5.87296 22.3264C5.70919 22.2852 5.55536 22.2115 5.42059 22.1098C5.28581 22.008 5.17284 21.8802 5.08837 21.734C5.0039 21.5878 4.94964 21.4261 4.92882 21.2585C4.90799 21.0909 4.92103 20.9209 4.96715 20.7584C5.01327 20.596 5.09153 20.4444 5.1973 20.3128C5.30308 20.1811 5.4342 20.0721 5.58291 19.992L6.63377 19.3852L5.84278 18.8882C5.5669 18.7069 5.37308 18.4246 5.30292 18.102C5.23277 17.7794 5.29187 17.4422 5.46754 17.1627C5.6432 16.8832 5.92144 16.6837 6.24255 16.6069C6.56365 16.5302 6.90203 16.5825 7.18506 16.7524L9.10512 17.9584L11.1829 16.7587C10.9372 15.8747 10.9372 14.9405 11.1829 14.0565L9.10512 12.858L7.18506 14.0628C6.90203 14.2328 6.56365 14.285 6.24255 14.2083C5.92144 14.1316 5.6432 13.9321 5.46754 13.6525C5.29187 13.373 5.23277 13.0358 5.30292 12.7132C5.37308 12.3906 5.5669 12.1084 5.84278 11.927L6.63377 11.43L5.58291 10.8244C5.29299 10.6572 5.08141 10.3816 4.9947 10.0583C4.90799 9.73497 4.95326 9.39047 5.12055 9.10056C5.28784 8.81064 5.56345 8.59906 5.88674 8.51235C6.21003 8.42564 6.55453 8.47091 6.84444 8.6382L7.89531 9.245L7.92937 8.31147C7.94191 7.97705 8.08679 7.66132 8.33213 7.43373C8.45361 7.32103 8.5961 7.23337 8.75145 7.17574C8.90681 7.11812 9.072 7.09165 9.23758 7.09787C9.40317 7.10408 9.56591 7.14284 9.71651 7.21195C9.86711 7.28106 10.0026 7.37915 10.1153 7.50063C10.228 7.62211 10.3157 7.76459 10.3733 7.91995C10.4309 8.07531 10.4574 8.2405 10.4512 8.40608L10.3667 10.6718L12.4457 11.8728C13.0879 11.2178 13.8965 10.7502 14.7846 10.5204V8.12097L12.78 7.06128C12.4842 6.90486 12.2627 6.63736 12.1642 6.31762C12.0656 5.99787 12.0981 5.65208 12.2546 5.35631C12.411 5.06054 12.6785 4.83902 12.9982 4.74049C13.318 4.64195 13.6638 4.67447 13.9595 4.83088L14.7846 5.26737V4.05377C14.7846 3.71919 14.9175 3.39832 15.1541 3.16173C15.3906 2.92515 15.7115 2.79224 16.0461 2.79224ZM16.0461 17.9307C16.7153 17.9307 17.357 17.6649 17.8302 17.1917C18.3034 16.7185 18.5692 16.0768 18.5692 15.4076C18.5692 14.7385 18.3034 14.0967 17.8302 13.6235C17.357 13.1504 16.7153 12.8845 16.0461 12.8845C15.3769 12.8845 14.7352 13.1504 14.262 13.6235C13.7889 14.0967 13.523 14.7385 13.523 15.4076C13.523 16.0768 13.7889 16.7185 14.262 17.1917C14.7352 17.6649 15.3769 17.9307 16.0461 17.9307Z" fill="#1080E2"/>
</svg>
