<svg width="26" height="26" viewBox="0 0 26 26" fill="none" xmlns="http://www.w3.org/2000/svg">
<path d="M13.0001 9.20833C12.5691 9.20833 12.1558 9.37954 11.851 9.68428C11.5463 9.98903 11.3751 10.4024 11.3751 10.8333V10.9493C11.3751 11.0929 11.318 11.2307 11.2164 11.3323C11.1148 11.4338 10.9771 11.4909 10.8334 11.4909C10.6898 11.4909 10.552 11.4338 10.4504 11.3323C10.3488 11.2307 10.2917 11.0929 10.2917 10.9493V10.8333C10.2917 10.115 10.5771 9.42616 11.085 8.91825C11.5929 8.41034 12.2818 8.125 13.0001 8.125H13.1257C13.6532 8.12516 14.168 8.28683 14.6009 8.58828C15.0337 8.88972 15.3639 9.31647 15.547 9.81116C15.7301 10.3058 15.7574 10.8447 15.6251 11.3554C15.4928 11.866 15.2073 12.3239 14.8071 12.6674L13.9718 13.3835C13.8371 13.4992 13.729 13.6427 13.6548 13.804C13.5806 13.9654 13.542 14.1408 13.5417 14.3184V14.8958C13.5417 15.0395 13.4847 15.1773 13.3831 15.2789C13.2815 15.3804 13.1437 15.4375 13.0001 15.4375C12.8564 15.4375 12.7186 15.3804 12.6171 15.2789C12.5155 15.1773 12.4584 15.0395 12.4584 14.8958V14.3184C12.4584 13.6424 12.7542 13.0011 13.2666 12.5613L14.1007 11.8463C14.3334 11.6469 14.4994 11.3812 14.5764 11.0847C14.6534 10.7882 14.6378 10.4752 14.5316 10.1879C14.4254 9.90053 14.2337 9.65262 13.9824 9.4775C13.731 9.30237 13.4321 9.20844 13.1257 9.20833H13.0001ZM13.0001 17.875C13.2156 17.875 13.4222 17.7894 13.5746 17.637C13.727 17.4847 13.8126 17.278 13.8126 17.0625C13.8126 16.847 13.727 16.6403 13.5746 16.488C13.4222 16.3356 13.2156 16.25 13.0001 16.25C12.7846 16.25 12.5779 16.3356 12.4256 16.488C12.2732 16.6403 12.1876 16.847 12.1876 17.0625C12.1876 17.278 12.2732 17.4847 12.4256 17.637C12.5779 17.7894 12.7846 17.875 13.0001 17.875Z" fill="white"/>
<path d="M3.79175 13.0001C3.79175 10.5579 4.76191 8.2157 6.48881 6.48881C8.2157 4.76191 10.5579 3.79175 13.0001 3.79175C15.4423 3.79175 17.7845 4.76191 19.5114 6.48881C21.2383 8.2157 22.2084 10.5579 22.2084 13.0001C22.2084 15.4423 21.2383 17.7845 19.5114 19.5114C17.7845 21.2383 15.4423 22.2084 13.0001 22.2084C10.5579 22.2084 8.2157 21.2383 6.48881 19.5114C4.76191 17.7845 3.79175 15.4423 3.79175 13.0001ZM13.0001 4.87508C10.8452 4.87508 8.77857 5.73111 7.25484 7.25484C5.73111 8.77857 4.87508 10.8452 4.87508 13.0001C4.87508 15.155 5.73111 17.2216 7.25484 18.7453C8.77857 20.2691 10.8452 21.1251 13.0001 21.1251C15.155 21.1251 17.2216 20.2691 18.7453 18.7453C20.2691 17.2216 21.1251 15.155 21.1251 13.0001C21.1251 10.8452 20.2691 8.77857 18.7453 7.25484C17.2216 5.73111 15.155 4.87508 13.0001 4.87508Z" fill="white"/>
</svg>
